HIERARCHY
ROOT hip
{
  OFFSET 0 0 0
  CHANNELS 6 Xposition Yposition Zposition Zrotation Yrotation Xrotation
  JOINT abdomen
  {
    OFFSET 0 20.6881 -0.73152
    CHANNELS 3 Zrotation Xrotation Yrotation
    JOINT chest
    {
      OFFSET 0 11.7043 -0.48768
      CHANNELS 3 Zrotation Xrotation Yrotation
      JOINT neck
      {
        OFFSET 0 22.1894 -2.19456
        CHANNELS 3 Zrotation Xrotation Yrotation
        JOINT head
        {
          OFFSET -0.24384 7.07133 1.2192
          CHANNELS 3 Zrotation Xrotation Yrotation
          JOINT leftEye
          {
            OFFSET 4.14528 8.04674 8.04672
            CHANNELS 3 Zrotation Xrotation Yrotation
            End Site
            {
              OFFSET 1 0 0
            }
          }
          JOINT rightEye
          {
            OFFSET -3.6576 8.04674 8.04672
            CHANNELS 3 Zrotation Xrotation Yrotation
            End Site
            {
              OFFSET 1 0 0
            }
          }
        }
      }
      JOINT rCollar
      {
        OFFSET -2.68224 19.2634 -4.8768
        CHANNELS 3 Zrotation Xrotation Yrotation
        JOINT rShldr
        {
          OFFSET -8.77824 -1.95073 1.46304
          CHANNELS 3 Zrotation Xrotation Yrotation
          JOINT rForeArm
          {
            OFFSET -28.1742 -1.7115 0.48768
            CHANNELS 3 Zrotation Xrotation Yrotation
            JOINT rHand
            {
              OFFSET -22.5879 0.773209 7.07136
              CHANNELS 3 Zrotation Xrotation Yrotation
              JOINT rThumb1
              {
                OFFSET -1.2192 -0.487915 3.41376
                CHANNELS 3 Zrotation Xrotation Yrotation
                JOINT rThumb2
                {
                  OFFSET -3.37035 -0.52449 3.41376
                  CHANNELS 3 Zrotation Xrotation Yrotation
                  End Site
                  {
                    OFFSET -1.78271 -1.18214 1.43049
                  }
                }
              }
              JOINT rIndex1
              {
                OFFSET -7.75947 0.938293 5.60832
                CHANNELS 3 Zrotation Xrotation Yrotation
                JOINT rIndex2
                {
                  OFFSET -2.54057 -0.884171 1.56538
                  CHANNELS 3 Zrotation Xrotation Yrotation
                  End Site
                  {
                    OFFSET -1.62519 -0.234802 1.16502
                  }
                }
              }
              JOINT rMid1
              {
                OFFSET -8.24714 1.18213 3.41376
                CHANNELS 3 Zrotation Xrotation Yrotation
                JOINT rMid2
                {
                  OFFSET -3.10165 -0.590103 1.0647
                  CHANNELS 3 Zrotation Xrotation Yrotation
                  End Site
                  {
                    OFFSET -2.48547 -0.328903 0.83742
                  }
                }
              }
              JOINT rRing1
              {
                OFFSET -8.82822 0.546677 1.51678
                CHANNELS 3 Zrotation Xrotation Yrotation
                JOINT rRing2
                {
                  OFFSET -2.60934 -0.819778 -0.0198488
                  CHANNELS 3 Zrotation Xrotation Yrotation
                  End Site
                  {
                    OFFSET -2.33842 -0.294052 0.168128
                  }
                }
              }
              JOINT rPinky1
              {
                OFFSET -8.27202 -0.0477905 -0.4584
                CHANNELS 3 Zrotation Xrotation Yrotation
                JOINT rPinky2
                {
                  OFFSET -1.82734 -0.647385 -0.700984
                  CHANNELS 3 Zrotation Xrotation Yrotation
                  End Site
                  {
                    OFFSET -1.69225 -0.51767 -0.607171
                  }
                }
              }
            }
          }
        }
      }
      JOINT lCollar
      {
        OFFSET 2.68224 19.2634 -4.8768
        CHANNELS 3 Zrotation Xrotation Yrotation
        JOINT lShldr
        {
          OFFSET 8.77824 -1.95073 1.46304
          CHANNELS 3 Zrotation Xrotation Yrotation
          JOINT lForeArm
          {
            OFFSET 28.1742 -1.7115 0.48768
            CHANNELS 3 Zrotation Xrotation Yrotation
            JOINT lHand
            {
              OFFSET 22.5879 0.773209 7.07136
              CHANNELS 3 Zrotation Xrotation Yrotation
              JOINT lThumb1
              {
                OFFSET 1.2192 -0.487915 3.41376
                CHANNELS 3 Zrotation Xrotation Yrotation
                JOINT lThumb2
                {
                  OFFSET 3.37035 -0.52449 3.41376
                  CHANNELS 3 Zrotation Xrotation Yrotation
                  End Site
                  {
                    OFFSET 1.78271 -1.18214 1.43049
                  }
                }
              }
              JOINT lIndex1
              {
                OFFSET 7.75947 0.938293 5.60832
                CHANNELS 3 Zrotation Xrotation Yrotation
                JOINT lIndex2
                {
                  OFFSET 2.54057 -0.884171 1.56538
                  CHANNELS 3 Zrotation Xrotation Yrotation
                  End Site
                  {
                    OFFSET 1.62519 -0.234802 1.16502
                  }
                }
              }
              JOINT lMid1
              {
                OFFSET 8.24714 1.18213 3.41376
                CHANNELS 3 Zrotation Xrotation Yrotation
                JOINT lMid2
                {
                  OFFSET 3.10165 -0.590103 1.0647
                  CHANNELS 3 Zrotation Xrotation Yrotation
                  End Site
                  {
                    OFFSET 2.48547 -0.328903 0.83742
                  }
                }
              }
              JOINT lRing1
              {
                OFFSET 8.82822 0.546677 1.51678
                CHANNELS 3 Zrotation Xrotation Yrotation
                JOINT lRing2
                {
                  OFFSET 2.60934 -0.819778 -0.0198488
                  CHANNELS 3 Zrotation Xrotation Yrotation
                  End Site
                  {
                    OFFSET 2.33842 -0.294052 0.168128
                  }
                }
              }
              JOINT lPinky1
              {
                OFFSET 8.27202 -0.0477905 -0.4584
                CHANNELS 3 Zrotation Xrotation Yrotation
                JOINT lPinky2
                {
                  OFFSET 1.82734 -0.647385 -0.700984
                  CHANNELS 3 Zrotation Xrotation Yrotation
                  End Site
                  {
                    OFFSET 1.69225 -0.51767 -0.607171
                  }
                }
              }
            }
          }
        }
      }
    }
  }
  JOINT rButtock
  {
    OFFSET -8.77824 4.35084 1.2192
    CHANNELS 3 Zrotation Xrotation Yrotation
    JOINT rThigh
    {
      OFFSET 0 -1.70687 -2.19456
      CHANNELS 3 Zrotation Xrotation Yrotation
      JOINT rShin
      {
        OFFSET 0 -36.8199 0.73152
        CHANNELS 3 Zrotation Xrotation Yrotation
        JOINT rFoot
        {
          OFFSET 0.73152 -45.1104 -5.12064
          CHANNELS 3 Zrotation Xrotation Yrotation
          End Site
          {
            OFFSET -1.1221 -3.69964 12.103
          }
        }
      }
    }
  }
  JOINT lButtock
  {
    OFFSET 8.77824 4.35084 1.2192
    CHANNELS 3 Zrotation Xrotation Yrotation
    JOINT lThigh
    {
      OFFSET 0 -1.70687 -2.19456
      CHANNELS 3 Zrotation Xrotation Yrotation
      JOINT lShin
      {
        OFFSET 0 -36.8199 0.73152
        CHANNELS 3 Zrotation Xrotation Yrotation
        JOINT lFoot
        {
          OFFSET -0.73152 -45.1104 -5.12064
          CHANNELS 3 Zrotation Xrotation Yrotation
          End Site
          {
            OFFSET 1.1221 -3.69964 12.103
          }
        }
      }
    }
  }
}
MOTION
Frames:	4
Frame Time:	0.03333
0.01948999986052513 51.9369010925293 0.04529999941587448 12.376499623060226 27.573800683021545 9.813500046730042 -21.366600394248962 10.895200073719025 5.219290070235729 6.306859776377678 -10.079899728298187 1.6018599830567837 -8.545939698815346 17.89749965071678 -13.361200243234634 10.746499747037888 -28.442299962043762 -23.935099840164185 0.0 0.0 0.0 0.0 0.0 0.0 -3.9968028886505635e-13 0.0 0.0 33.452599346637726 -23.010099828243256 60.52160024642944 -8.921019807457924 -3.509880043566227 15.790699571371078 -0.9345119632780552 26.3468000292778 3.9911598712205887 -2.5923263535787555e-09 -1.8644925603439333e-08 -1.8212631403002888e-09 -4.508873274744474e-09 -3.207674126315396e-08 -3.0900082492735237e-09 -2.5923263535787555e-09 -1.8644925603439333e-08 -1.8212631403002888e-09 7.7309102565050125 5.474880114197731 0.41731400415301323 -2.5923263535787555e-09 -1.8644925603439333e-08 -1.8212631403002888e-09 2.905540131032467 0.9651830233633518 0.102901995414868 -2.5923263535787555e-09 -1.8644925603439333e-08 -1.8212631403002888e-09 10.27859978377819 0.7318009994924068 0.025912300043273717 -2.5923263535787555e-09 -1.8644925603439333e-08 -1.8212631403002888e-09 2.221670038998127 -0.733487019315362 -0.2089200052432716 -3.9968028886505635e-13 0.0 0.0 -111.38799905776978 50.01830041408539 47.30260133743286 28.1536003947258 -39.5087993144989 -83.0459976196289 5.680089890956879 -53.951502442359924 11.133399680256844 -4.930456043439335e-10 -6.497202775790356e-10 -3.069544618483633e-11 -8.483613811449686e-10 -1.1101519703515805e-09 -5.6274984672199935e-11 -4.930456043439335e-10 -6.497202775790356e-10 -3.069544618483633e-11 -7.7309102565050125 5.474880114197731 -0.41731400415301323 -4.930456043439335e-10 -6.497202775790356e-10 -3.069544618483633e-11 -2.905540131032467 0.9651830233633518 -0.102901995414868 -4.930456043439335e-10 -6.497202775790356e-10 -3.069544618483633e-11 -10.27859978377819 0.7318009994924068 -0.025912300043273717 -4.930456043439335e-10 -6.497202775790356e-10 -3.069544618483633e-11 -2.221670038998127 -0.733487019315362 0.2089200052432716 0.0 0.0 0.0 -76.70759975910187 -58.69069755077362 -65.2536016702652 -4.074639938771725 77.94659793376923 4.47354007512331 1.1425600200891495 -2.0591700822114944 8.056270256638527 0.0 0.0 0.0 11.244699954986572 16.72739937901497 -0.6318939942866564 -0.20920299924910069 27.49149978160858 -2.7369399927556515 7.923569977283478 -15.779500007629395 34.95269984006882
0.03208999987691641 51.89580154418945 0.09039999917149544 12.380899786949158 27.519899010658264 9.802600219845772 -21.36980026960373 10.880899876356125 5.216949842870235 6.32844015955925 -10.062099918723106 1.6014700569212437 -8.576329797506332 17.869600653648376 -13.352599740028381 10.792299807071686 -28.319500386714935 -23.906899094581604 0.0 0.0 0.0 0.0 0.0 0.0 -1.5987211554602254e-13 0.0 0.0 33.36790055036545 -23.016700744628906 60.56189775466919 -8.918770104646683 -3.510189838707447 15.788500159978867 -0.9240559581667185 26.212000250816345 3.967540003359318 -2.3945645466483256e-09 -9.188170224661008e-09 6.139089236967266e-11 -4.1311754017669955e-09 -1.5616308246535482e-08 1.6370904631912708e-10 -2.3945645466483256e-09 -9.188170224661008e-09 6.139089236967266e-11 7.7309102565050125 5.474880114197731 0.41731400415301323 -2.3945645466483256e-09 -9.188170224661008e-09 6.139089236967266e-11 2.905540131032467 0.9651830233633518 0.102901995414868 -2.3945645466483256e-09 -9.188170224661008e-09 6.139089236967266e-11 10.27859978377819 0.7318009994924068 0.025912300043273717 -2.3945645466483256e-09 -9.188170224661008e-09 6.139089236967266e-11 2.221670038998127 -0.733487019315362 -0.2089200052432716 -1.5987211554602254e-13 0.0 0.0 -111.3599967956543 50.01280188560486 47.237101793289185 28.157100677490234 -39.48590129613876 -83.00550162792206 5.688530132174492 -53.97680103778839 11.143899857997894 -1.3165468715214956e-09 -9.669065548223443e-10 -3.581135388230905e-10 -2.248121688808169e-09 -1.5066348169057164e-09 -6.752998160663992e-10 -1.3165468715214956e-09 -9.669065548223443e-10 -3.581135388230905e-10 -7.7309102565050125 5.474880114197731 -0.41731400415301323 -1.3165468715214956e-09 -9.669065548223443e-10 -3.581135388230905e-10 -2.905540131032467 0.9651830233633518 -0.102901995414868 -1.3165468715214956e-09 -9.669065548223443e-10 -3.581135388230905e-10 -10.27859978377819 0.7318009994924068 -0.025912300043273717 -1.3165468715214956e-09 -9.669065548223443e-10 -3.581135388230905e-10 -2.221670038998127 -0.733487019315362 0.2089200052432716 0.0 0.0 0.0 -76.8546974658966 -58.678101897239685 -65.42519867420197 -4.122350066900253 78.05140256881714 4.514660015702248 1.1561500187963247 -2.1070399694144726 8.155550211668015 0.0 0.0 0.0 11.225699856877327 16.860199570655823 -0.6284380098804832 -0.20954299019649625 27.40090012550354 -2.737309969961643 7.91128009557724 -15.765300393104553 34.96159940958023
0.039229999762028456 51.85749816894531 0.13360000029206276 12.377199679613113 27.476200461387634 9.786199852824211 -21.370899975299835 10.867299735546112 5.212299898266792 6.345480233430862 -10.047300159931183 1.601290013641119 -8.574870005249977 17.850500643253326 -13.349200040102005 10.828899890184402 -28.20090115070343 -23.891699016094208 0.0 0.0 0.0 0.0 0.0 0.0 -7.993605777301127e-14 0.0 0.0 33.28909993171692 -22.99739956855774 60.55930137634277 -8.935759887099266 -3.5201700031757355 15.820700079202652 -0.9165939688682556 26.11510008573532 3.950590118765831 -1.666826676682831e-09 -4.476419235288631e-09 4.604316927725449e-10 -2.8669067120290492e-09 -7.5203843152849e-09 8.338929546880536e-10 -1.666826676682831e-09 -4.476419235288631e-09 4.604316927725449e-10 7.7309102565050125 5.474880114197731 0.41731400415301323 -1.666826676682831e-09 -4.476419235288631e-09 4.604316927725449e-10 2.905540131032467 0.9651830233633518 0.102901995414868 -1.666826676682831e-09 -4.476419235288631e-09 4.604316927725449e-10 10.27859978377819 0.7318009994924068 0.025912300043273717 -1.666826676682831e-09 -4.476419235288631e-09 4.604316927725449e-10 2.221670038998127 -0.733487019315362 -0.2089200052432716 -7.993605777301127e-14 0.0 0.0 -111.3349986076355 50.024099349975586 47.17199921607971 28.161301016807556 -39.457899034023285 -82.9558002948761 5.712350159883499 -54.0477991104126 11.173300221562386 -9.808953649326213e-10 -7.699441084696446e-10 -2.353317540837452e-10 -1.6756196430378623e-09 -1.1996803550573532e-09 -4.553157850750722e-10 -9.808953649326213e-10 -7.699441084696446e-10 -2.353317540837452e-10 -7.7309102565050125 5.474880114197731 -0.41731400415301323 -9.808953649326213e-10 -7.699441084696446e-10 -2.353317540837452e-10 -2.905540131032467 0.9651830233633518 -0.102901995414868 -9.808953649326213e-10 -7.699441084696446e-10 -2.353317540837452e-10 -10.27859978377819 0.7318009994924068 -0.025912300043273717 -9.808953649326213e-10 -7.699441084696446e-10 -2.353317540837452e-10 -2.221670038998127 -0.733487019315362 0.2089200052432716 0.0 0.0 0.0 -76.96579992771149 -58.66349995136261 -65.56789755821228 -4.167680069804192 78.14890086650848 4.553929902613163 1.167689971625805 -2.1505599841475487 8.225689977407455 0.0 0.0 0.0 11.238599941134453 16.952499747276306 -0.5909620178863406 -0.2111579943448305 27.36309975385666 -2.739080060273409 7.909710332751274 -15.782100409269333 34.94200050830841
0.041859999764710665 51.82429885864258 0.17330000177025795 12.364999651908875 27.455099523067474 9.761899709701538 -21.36980026960373 10.85460014641285 5.205329842865467 6.35796993970871 -10.035599693655968 1.601330079138279 -8.54156032204628 17.84019961953163 -13.350999802350998 10.856499820947647 -28.086499571800232 -23.889400362968445 0.0 0.0 0.0 0.0 0.0 0.0 -7.993605777301127e-14 0.0 0.0 33.2161009311676 -22.95219898223877 60.514100790023804 -8.971950262784958 -3.5398101434111595 15.887300670146942 -0.9120519831776619 26.056000292301178 3.940259926021099 -4.0895287156672566e-10 -4.517346496868413e-09 -6.292566467891447e-10 -7.16067205530635e-10 -7.791527423250955e-09 -1.0743406164692715e-09 -4.0895287156672566e-10 -4.517346496868413e-09 -6.292566467891447e-10 7.7309102565050125 5.474880114197731 0.41731400415301323 -4.0895287156672566e-10 -4.517346496868413e-09 -6.292566467891447e-10 2.905540131032467 0.9651830233633518 0.102901995414868 -4.0895287156672566e-10 -4.517346496868413e-09 -6.292566467891447e-10 10.27859978377819 0.7318009994924068 0.025912300043273717 -4.0895287156672566e-10 -4.517346496868413e-09 -6.292566467891447e-10 2.221670038998127 -0.733487019315362 -0.2089200052432716 -7.993605777301127e-14 0.0 0.0 -111.31300449371338 50.05240201950073 47.10740089416504 28.16619873046875 -39.42480057477951 -82.89700090885162 5.751800090074539 -54.16459858417511 11.221999749541283 5.139089154226895e-10 -5.88329385209363e-11 3.325340003357269e-10 8.693046282814976e-10 -1.8417267710901797e-10 6.036771083017811e-10 5.139089154226895e-10 -5.88329385209363e-11 3.325340003357269e-10 -7.7309102565050125 5.474880114197731 -0.41731400415301323 5.139089154226895e-10 -5.88329385209363e-11 3.325340003357269e-10 -2.905540131032467 0.9651830233633518 -0.102901995414868 5.139089154226895e-10 -5.88329385209363e-11 3.325340003357269e-10 -10.27859978377819 0.7318009994924068 -0.025912300043273717 5.139089154226895e-10 -5.88329385209363e-11 3.325340003357269e-10 -2.221670038998127 -0.733487019315362 0.2089200052432716 0.0 0.0 0.0 -77.04079985618591 -58.64699900150299 -65.6816017627716 -4.210530035197735 78.23909819126129 4.591219983994961 1.1770799662917852 -2.189750075340271 8.266680166125298 0.0 0.0 0.0 11.28340020775795 17.00410008430481 -0.5194360110908747 -0.2140470058657229 27.377800941467285 -2.7422599866986275 7.918829843401909 -15.829799473285675 34.89390045404434
